<svg id="Capa_1" enable-background="new 0 0 512 512" height="512" viewBox="0 0 512 512" width="512" xmlns="http://www.w3.org/2000/svg"><g><g><g><path d="m272.237 314.985c-11.803-1.538-25.807-1.538-37.61 0-137.92 17.968-205.854 189.515-112.401 189.515h262.412c93.453 0 25.518-171.547-112.401-189.515z" fill="#d97b7b"/><path d="m272.237 314.985c-10.77-1.403-23.354-1.511-34.445-.353 1.064.111 2.132.219 3.165.353 137.92 17.968 205.854 189.515 112.401 189.515h31.279c93.454 0 25.519-171.547-112.4-189.515z" fill="#d16161"/><path d="m190.773 296.459h125.318v208.041h-125.318z" fill="#dcd2cd"/><path d="m253.432 302.539-53.649 33.649 53.649 131.035 53.648-131.035z" fill="#ebae9d"/><path d="m321.901 269.07c-24.815 59.751-68.469 198.153-68.469 198.153l54.099-63.647c3.557-4.185 9.466-5.491 14.455-3.194l53.618 24.682c6.439 2.964 13.571-2.454 12.453-9.454-6.053-37.894-24.839-130.148-66.156-146.54z" fill="#f7f3f1"/><path d="m184.963 269.07c24.815 59.751 68.469 198.153 68.469 198.153l-54.099-63.647c-3.557-4.185-9.466-5.491-14.455-3.194l-53.618 24.682c-6.439 2.964-13.571-2.454-12.453-9.454 6.052-37.894 24.839-130.148 66.156-146.54z" fill="#f7f3f1"/><ellipse cx="402.185" cy="142.672" fill="#d16161" rx="24.823" ry="40.218" transform="matrix(.707 -.707 .707 .707 16.913 326.176)"/><ellipse cx="402.185" cy="92.672" fill="#d97b7b" rx="40.218" ry="24.823" transform="matrix(.707 -.707 .707 .707 52.268 311.531)"/><path d="m387.292 130.867c-1.12-40.011-9.76-70.467-24.05-72.348-4.694-.618-8.482-4.029-10.01-8.51-4.428-12.981-15.287-23.194-30.652-17.041-5.515 2.208-11.911.574-15.256-4.336-15.285-22.441-48.636-23.122-67.513-10.737-3.732 2.449-8.446 2.803-12.466.86-77.611-37.519-107.9 25.825-107.9 86.302v141.957h267.971v-116.147z" fill="#766d78"/><path d="m383.247 234.116h-41.792v37.876h41.792c10.459 0 18.938-8.479 18.938-18.938s-8.479-18.938-18.938-18.938z" fill="#ebae9d"/><path d="m123.616 234.116h41.792v37.876h-41.792c-10.459 0-18.938-8.479-18.938-18.938s8.479-18.938 18.938-18.938z" fill="#ebae9d"/><path d="m151.534 147.546v109.275c0 39.659 26.386 73.153 62.56 83.89 4.074 1.209 7.203 4.372 8.457 8.432 4.075 13.186 16.356 22.766 30.88 22.766s26.805-9.581 30.88-22.766c1.255-4.06 4.384-7.223 8.457-8.432 36.174-10.736 62.56-44.231 62.56-83.89v-109.275z" fill="#ffcdbe"/><path d="m333.838 147.546v115.593c0 32.003-15.365 60.198-38.708 76.819 34.952-11.47 60.199-44.348 60.199-83.137v-109.275z" fill="#ebae9d"/><path d="m183.968 208.296v18.48c0 8.639 7.003 15.642 15.642 15.642h3.771c4.558 0 9.01-1.371 12.778-3.935l15.772-10.734c3.754-2.555 6.001-6.802 6.001-11.343v-8.109c0-6.52-5.285-11.805-11.805-11.805h-30.353c-6.521-.001-11.806 5.285-11.806 11.804z" fill="#766d78"/><path d="m123.864 66.513c-2.998 12.286-4.418 25.48-4.418 38.543v45.889c88.445 17.724 179.526 17.724 267.971 0v-20.079h-.126c-.071-2.554-.176-5.067-.308-7.539-85.851-51.465-191.533-94.346-263.119-56.814z" fill="#d97b7b"/></g></g><g><path d="m422.739 117.68c.78-.695 1.548-1.406 2.293-2.152 14.117-14.117 18.981-34.674 12.696-53.651-.746-2.252-2.513-4.018-4.764-4.763-17.504-5.789-36.351-2.089-50.249 9.599-4.861-9.394-11.056-14.644-18.503-15.624-1.718-.227-3.247-1.6-3.894-3.497-3.49-10.225-9.826-17.881-17.84-21.559-6.939-3.185-14.789-3.192-22.695-.021-2.36.946-4.999.27-6.273-1.598-8.27-12.146-21.681-19.838-37.761-21.659-14.168-1.604-29.146 1.71-40.065 8.871-1.559 1.025-3.451 1.168-5.117.358-1.525-.727-3.02-1.421-4.503-2.085-3.782-1.692-8.217.003-9.908 3.785-1.691 3.781.003 8.217 3.784 9.908 1.376.616 2.762 1.261 4.122 1.908 6.315 3.071 13.925 2.56 19.852-1.333 16.394-10.749 44.951-9.296 57.201 8.694 5.295 7.761 15.262 10.672 24.247 7.074 4.111-1.648 7.662-1.736 10.86-.27 4.176 1.916 7.785 6.571 9.901 12.772 2.513 7.358 8.691 12.539 16.129 13.522 3.234.425 7.252 5.718 10.638 16.197.067.266.153.527.249.784 2.116 6.772 3.966 15.615 5.194 26.614-69.054-39.803-167.637-83.216-242.31-56.514 4.205-10.479 9.759-19.211 16.445-25.492 9.73-9.14 21.89-13.323 36.136-12.43 4.126.248 7.695-2.883 7.954-7.017s-2.883-7.695-7.017-7.954c-18.545-1.16-34.474 4.379-47.343 16.467-18.21 17.105-29.058 46.932-30.156 82.447-.016.493-.103 51.885-.103 51.885 0 .03.004.059.004.089v78.306c-8.741 4.317-14.77 13.32-14.77 23.708 0 14.579 11.861 26.439 26.44 26.439h23.118c.989 4.055 2.253 8.029 3.772 11.91-12.657 19.875-21.859 46.413-28.381 71.383-39.822 39.077-59.44 89.95-46.683 121.651 7.153 17.778 23.768 27.568 46.784 27.568h262.407c22.469 0 34.465-9.149 40.571-16.824 9.853-12.385 12.561-30.987 7.626-52.381-.931-4.037-4.963-6.554-8.994-5.623-4.036.931-6.554 4.957-5.623 8.994 3.886 16.848 2.2 30.937-4.749 39.671-5.892 7.407-15.593 11.163-28.831 11.163h-61.05v-87.626l48.868 22.497c5.498 2.536 11.911 1.838 16.734-1.818 4.826-3.659 7.229-9.646 6.272-15.628-.994-6.211-2.255-13.434-3.809-21.288 5.542 7.221 10.449 14.731 14.567 22.335 1.358 2.507 3.938 3.93 6.602 3.93 1.206 0 2.43-.292 3.564-.906 3.643-1.973 4.996-6.524 3.024-10.166-8.743-16.145-20.717-31.858-34.692-45.574-6.527-24.974-15.729-51.505-28.372-71.354 1.519-3.88 2.782-7.854 3.772-11.909h10.897v10.564c0 4.142 3.358 7.5 7.5 7.5s7.5-3.358 7.5-7.5v-10.71c13.282-1.389 23.671-12.65 23.671-26.294 0-10.388-6.029-19.391-14.77-23.708v-53.086c6.791 3.033 14.179 4.613 21.623 4.613 5.524 0 11.079-.865 16.434-2.638 2.251-.745 4.017-2.511 4.763-4.762 6.285-18.976 1.42-39.534-12.697-53.651-.74-.74-1.51-1.447-2.292-2.141zm1.781-47.353c2.772 12.467-.932 25.433-10.097 34.598-5.653 5.66-12.751 9.259-20.467 10.489-1.029-12.721-2.882-24.043-5.479-33.425.472-.528.944-1.058 1.445-1.559 9.164-9.164 22.13-12.872 34.598-10.103zm-61.7 156.296v-63.611c5.701-.92 11.398-1.91 17.09-2.974v66.585zm-164.558 187.291 47.661 56.065v27.021h-47.661zm55.159 28.672c-5.627-17.468-14.034-43.287-23.245-70.612 6.591 4.729 14.643 7.438 23.244 7.438 8.605 0 16.658-2.708 23.248-7.435-9.212 27.324-17.619 53.141-23.247 70.609zm37.202-109.063c-6.435 1.913-11.476 6.921-13.489 13.407-3.227 10.456-12.756 17.481-23.713 17.481-10.949 0-20.479-7.027-23.712-17.477-1.997-6.485-7.041-11.499-13.493-13.413-16.183-4.805-30.744-14.906-41-28.44-6.428-8.483-10.992-17.923-13.618-28.031l27.095-29.869c3.252 1.746 6.966 2.739 10.908 2.739h3.771c6.088 0 11.965-1.811 16.997-5.235l15.772-10.733c5.812-3.955 9.281-10.514 9.281-17.543v-8.109c0-6.237-2.986-11.777-7.589-15.308l19.229-21.202c30.288-.162 60.572-2.333 90.757-6.528v91.561c0 4.601-.295 9.155-1.148 13.581-.017.088-.033.176-.048.264-5.264 30.371-27.641 54.435-56 62.855zm-99.163-106.743v-18.48c0-2.374 1.931-4.305 4.305-4.305h30.352c2.374 0 4.305 1.931 4.305 4.305v8.109c0 2.061-1.017 3.983-2.721 5.143l-15.772 10.733c-2.533 1.725-5.492 2.636-8.557 2.636h-3.771c-4.489 0-8.141-3.652-8.141-8.141zm29.748-37.785h-25.442c-10.645 0-19.305 8.66-19.305 19.305v18.479c0 3.334.714 6.503 1.989 9.369l-19.412 21.4c-.002-.242-.014-.483-.014-.726v-91.561c25.931 3.604 51.935 5.723 77.951 6.35zm-77.186 37.628h-17.08v-66.584c5.689 1.063 11.382 2.053 17.08 2.972zm235.644-98.907c.044 1.11.085 2.227.117 3.368.011.404.055.8.127 1.185v12.497c-8.438 1.613-16.855 3.288-25.343 4.356-.273.034-.542.071-.805.126-75.045 11.343-151.318 9.958-226.818-4.472 0 0 .216-48.302.225-48.476.433-8.336 1.481-16.689 3.223-24.675 39.772-19.179 114.735-23.725 249.274 56.091zm-256.053 136.777c-6.308 0-11.44-5.132-11.44-11.439 0-6.303 5.132-11.43 11.44-11.43h20.41v15.2c0 2.574.103 5.132.304 7.67h-20.714zm39.648 49.649c10.756 14.194 25.513 25.2 42.068 31.509 10.875 31.347 21.684 64.121 29.462 88.074l-29.746-34.992c-5.874-6.934-15.543-8.728-23.308-5.165l-53.625 24.682c-.491.227-.954.176-1.382-.147-.432-.328-.608-.768-.521-1.309 3.583-22.432 13.478-74.589 32.345-109.464 1.465 2.323 3.029 4.598 4.707 6.812zm-73.907 164.691c-4.85-12.052-3.345-29.221 4.236-48.345 4.992-12.592 12.406-25.336 21.605-37.33-1.55 7.847-2.807 15.064-3.799 21.269-.957 5.983 1.446 11.972 6.271 15.63 4.821 3.655 11.23 4.35 16.72 1.817l48.873-22.495v87.621h-61.039c-16.958 0-28.016-6.112-32.867-18.167zm171.569 18.167v-27.024l47.658-56.061v83.085zm119.721-80.204c.086.537-.09.976-.522 1.304-.431.326-.898.377-1.396.148l-53.617-24.683c-7.872-3.613-17.536-1.627-23.302 5.159l-29.753 35c7.779-23.954 18.59-56.729 29.471-88.076 16.55-6.31 31.303-17.314 42.058-31.506 1.678-2.214 3.242-4.489 4.708-6.813 18.847 34.845 28.76 87.023 32.353 109.467zm5.365-152.656v-4.575c0-4.142-3.358-7.5-7.5-7.5s-7.5 3.358-7.5 7.5v4.928h-8.493c.201-2.538.304-5.096.304-7.67v-15.2h20.42c6.308 0 11.44 5.127 11.44 11.43-.001 5.352-3.699 9.844-8.671 11.087zm38.513-99.123c-10.235 2.239-21.066.071-29.612-5.919v-28.223c0-.148-.015-.292-.024-.438 5.084-.663 9.989-2.059 14.602-4.141 1.753 1.239 3.414 2.609 4.938 4.132 9.161 9.161 12.865 22.124 10.096 34.589z"/><path d="m306.102 226.62c-4.142 0-7.5 3.358-7.5 7.5v4.479c0 4.142 3.358 7.5 7.5 7.5s7.5-3.358 7.5-7.5v-4.479c0-4.142-3.358-7.5-7.5-7.5z"/><path d="m324.652 203.315c-12.134-8.628-24.964-8.629-37.1 0-3.376 2.4-4.166 7.083-1.766 10.458 1.463 2.058 3.773 3.154 6.119 3.154 1.503 0 3.021-.451 4.34-1.388 6.91-4.914 12.806-4.914 19.714 0 3.376 2.399 8.058 1.61 10.459-1.766 2.4-3.375 1.61-8.057-1.766-10.458z"/><path d="m253.423 284.496c12.682 0 23-10.318 23-23v-6.5c0-4.142-3.358-7.5-7.5-7.5s-7.5 3.358-7.5 7.5v6.5c0 4.411-3.589 8-8 8s-8-3.589-8-8v-6.5c0-4.142-3.358-7.5-7.5-7.5s-7.5 3.358-7.5 7.5v6.5c0 12.682 10.318 23 23 23z"/><path d="m284.284 289.786c-20.767 10.63-40.957 10.63-61.723 0-3.687-1.887-8.206-.429-10.094 3.259-1.887 3.687-.428 8.206 3.259 10.093 12.506 6.401 25.101 9.602 37.696 9.602s25.19-3.201 37.696-9.602c3.687-1.887 5.146-6.406 3.259-10.093-1.886-3.688-6.406-5.146-10.093-3.259z"/><path d="m150.933 454.01h4.981c4.142 0 7.5-3.358 7.5-7.5s-3.358-7.5-7.5-7.5h-4.981c-4.142 0-7.5 3.358-7.5 7.5 0 4.143 3.358 7.5 7.5 7.5z"/><path d="m155.915 466.836h-4.981c-4.142 0-7.5 3.358-7.5 7.5s3.358 7.5 7.5 7.5h4.981c4.142 0 7.5-3.358 7.5-7.5s-3.358-7.5-7.5-7.5z"/><path d="m355.912 439.011h-4.981c-4.142 0-7.5 3.358-7.5 7.5s3.358 7.5 7.5 7.5h4.981c4.142 0 7.5-3.358 7.5-7.5 0-4.143-3.358-7.5-7.5-7.5z"/><path d="m355.912 466.836h-4.981c-4.142 0-7.5 3.358-7.5 7.5s3.358 7.5 7.5 7.5h4.981c4.142 0 7.5-3.358 7.5-7.5s-3.358-7.5-7.5-7.5z"/></g></g></svg>